<svg width="20" height="20" viewBox="0 0 20 20" fill="none" xmlns="http://www.w3.org/2000/svg">
<path d="M7.27118 0.150391C9.1921 0.150391 11.0344 0.913475 12.3927 2.27177C13.7509 3.63007 14.514 5.47232 14.514 7.39325C14.514 9.18725 13.8566 10.8364 12.7757 12.1067L13.0766 12.4075H13.9569L19.5283 17.979L17.8569 19.6504L12.2855 14.079V13.1987L11.9846 12.8978C10.7143 13.9787 9.06518 14.6361 7.27118 14.6361C5.35025 14.6361 3.508 13.873 2.1497 12.5147C0.791405 11.1564 0.0283203 9.31417 0.0283203 7.39325C0.0283203 5.47232 0.791405 3.63007 2.1497 2.27177C3.508 0.913475 5.35025 0.150391 7.27118 0.150391ZM7.27118 2.37896C4.48546 2.37896 2.25689 4.60753 2.25689 7.39325C2.25689 10.179 4.48546 12.4075 7.27118 12.4075C10.0569 12.4075 12.2855 10.179 12.2855 7.39325C12.2855 4.60753 10.0569 2.37896 7.27118 2.37896Z" fill="#FFF5E6"/>
</svg>
